<mxfile host="65bd71144e">
    <diagram id="BchvI7WIYb1rJNrYavdt" name="使用案例圖">
        <mxGraphModel dx="804" dy="616" grid="1" gridSize="10" guides="1" tooltips="1" connect="1" arrows="1" fold="1" page="1" pageScale="1" pageWidth="827" pageHeight="1169" math="0" shadow="0">
            <root>
                <mxCell id="0"/>
                <mxCell id="1" parent="0"/>
                <mxCell id="S_wn4UYpw5f5jdBztWyt-140" value="&lt;span style=&quot;font-size: 15px;&quot;&gt;麥當勞點餐系統&lt;/span&gt;" style="swimlane;whiteSpace=wrap;html=1;labelBackgroundColor=none;fontStyle=0;fontSize=15;" parent="1" vertex="1">
                    <mxGeometry x="200" y="120" width="440" height="520" as="geometry"/>
                </mxCell>
                <mxCell id="S_wn4UYpw5f5jdBztWyt-142" value="顧客點餐" style="ellipse;whiteSpace=wrap;html=1;fontSize=15;" parent="S_wn4UYpw5f5jdBztWyt-140" vertex="1">
                    <mxGeometry x="73" y="40" width="120" height="60" as="geometry"/>
                </mxCell>
                <mxCell id="S_wn4UYpw5f5jdBztWyt-146" value="確認訂單狀況" style="ellipse;whiteSpace=wrap;html=1;fontSize=15;" parent="S_wn4UYpw5f5jdBztWyt-140" vertex="1">
                    <mxGeometry x="73" y="145" width="120" height="60" as="geometry"/>
                </mxCell>
                <mxCell id="S_wn4UYpw5f5jdBztWyt-143" value="顯示訂單詳細資訊" style="ellipse;whiteSpace=wrap;html=1;fontSize=15;" parent="S_wn4UYpw5f5jdBztWyt-140" vertex="1">
                    <mxGeometry x="66" y="240" width="137" height="60" as="geometry"/>
                </mxCell>
                <mxCell id="S_wn4UYpw5f5jdBztWyt-141" value="顯示處理中以及&lt;br style=&quot;font-size: 15px;&quot;&gt;完成訂單" style="ellipse;whiteSpace=wrap;html=1;fontSize=15;" parent="S_wn4UYpw5f5jdBztWyt-140" vertex="1">
                    <mxGeometry x="64" y="339" width="137" height="60" as="geometry"/>
                </mxCell>
                <mxCell id="S_wn4UYpw5f5jdBztWyt-144" value="移除已完成訂單" style="ellipse;whiteSpace=wrap;html=1;fontSize=15;" parent="S_wn4UYpw5f5jdBztWyt-140" vertex="1">
                    <mxGeometry x="73" y="439" width="120" height="60" as="geometry"/>
                </mxCell>
                <mxCell id="S_wn4UYpw5f5jdBztWyt-145" value="廚師調用食材" style="ellipse;whiteSpace=wrap;html=1;fontSize=15;" parent="S_wn4UYpw5f5jdBztWyt-140" vertex="1">
                    <mxGeometry x="258" y="80.5" width="120" height="60" as="geometry"/>
                </mxCell>
                <mxCell id="S_wn4UYpw5f5jdBztWyt-173" value="盤點庫存" style="ellipse;whiteSpace=wrap;html=1;fontSize=15;" parent="S_wn4UYpw5f5jdBztWyt-140" vertex="1">
                    <mxGeometry x="258" y="189.5" width="120" height="60" as="geometry"/>
                </mxCell>
                <mxCell id="S_wn4UYpw5f5jdBztWyt-175" value="提供點餐機" style="ellipse;whiteSpace=wrap;html=1;fontSize=15;" parent="S_wn4UYpw5f5jdBztWyt-140" vertex="1">
                    <mxGeometry x="258" y="379.5" width="120" height="60" as="geometry"/>
                </mxCell>
                <mxCell id="S_wn4UYpw5f5jdBztWyt-174" value="監控並補充庫存" style="ellipse;whiteSpace=wrap;html=1;fontSize=15;" parent="S_wn4UYpw5f5jdBztWyt-140" vertex="1">
                    <mxGeometry x="258" y="279.5" width="120" height="60" as="geometry"/>
                </mxCell>
                <mxCell id="S_wn4UYpw5f5jdBztWyt-150" value="顧客" style="shape=umlActor;verticalLabelPosition=bottom;verticalAlign=top;html=1;outlineConnect=0;fontSize=15;" parent="1" vertex="1">
                    <mxGeometry x="120" y="215" width="30" height="60" as="geometry"/>
                </mxCell>
                <mxCell id="S_wn4UYpw5f5jdBztWyt-149" value="員工" style="shape=umlActor;verticalLabelPosition=bottom;verticalAlign=top;html=1;outlineConnect=0;fontSize=15;" parent="1" vertex="1">
                    <mxGeometry x="120" y="420" width="30" height="60" as="geometry"/>
                </mxCell>
                <mxCell id="S_wn4UYpw5f5jdBztWyt-176" value="倉庫管理員" style="shape=umlActor;verticalLabelPosition=bottom;verticalAlign=top;html=1;outlineConnect=0;fontSize=15;" parent="1" vertex="1">
                    <mxGeometry x="710" y="155" width="30" height="60" as="geometry"/>
                </mxCell>
                <mxCell id="S_wn4UYpw5f5jdBztWyt-177" value="供應商" style="shape=umlActor;verticalLabelPosition=bottom;verticalAlign=top;html=1;outlineConnect=0;fontSize=15;" parent="1" vertex="1">
                    <mxGeometry x="710" y="320" width="30" height="60" as="geometry"/>
                </mxCell>
                <mxCell id="S_wn4UYpw5f5jdBztWyt-178" value="餐廳管理系統" style="shape=umlActor;verticalLabelPosition=bottom;verticalAlign=top;html=1;outlineConnect=0;fontSize=15;" parent="1" vertex="1">
                    <mxGeometry x="710" y="480" width="30" height="60" as="geometry"/>
                </mxCell>
                <mxCell id="S_wn4UYpw5f5jdBztWyt-181" value="" style="endArrow=none;html=1;fontColor=#FFFFFF;entryX=0;entryY=0.5;entryDx=0;entryDy=0;fontSize=15;" parent="1" source="S_wn4UYpw5f5jdBztWyt-150" target="S_wn4UYpw5f5jdBztWyt-142" edge="1">
                    <mxGeometry width="50" height="50" relative="1" as="geometry">
                        <mxPoint x="220" y="250" as="sourcePoint"/>
                        <mxPoint x="440" y="350" as="targetPoint"/>
                    </mxGeometry>
                </mxCell>
                <mxCell id="S_wn4UYpw5f5jdBztWyt-182" value="" style="endArrow=none;html=1;fontColor=#FFFFFF;entryX=0;entryY=1;entryDx=0;entryDy=0;exitX=1;exitY=0.3333333333333333;exitDx=0;exitDy=0;exitPerimeter=0;fontSize=15;" parent="1" source="S_wn4UYpw5f5jdBztWyt-149" target="S_wn4UYpw5f5jdBztWyt-142" edge="1">
                    <mxGeometry width="50" height="50" relative="1" as="geometry">
                        <mxPoint x="160" y="247.82608695652175" as="sourcePoint"/>
                        <mxPoint x="260" y="200" as="targetPoint"/>
                    </mxGeometry>
                </mxCell>
                <mxCell id="S_wn4UYpw5f5jdBztWyt-183" value="" style="endArrow=none;html=1;fontColor=#FFFFFF;entryX=0;entryY=0.5;entryDx=0;entryDy=0;exitX=1;exitY=0.3333333333333333;exitDx=0;exitDy=0;exitPerimeter=0;fontSize=15;" parent="1" source="S_wn4UYpw5f5jdBztWyt-149" target="S_wn4UYpw5f5jdBztWyt-146" edge="1">
                    <mxGeometry width="50" height="50" relative="1" as="geometry">
                        <mxPoint x="170" y="257.82608695652175" as="sourcePoint"/>
                        <mxPoint x="270" y="210" as="targetPoint"/>
                    </mxGeometry>
                </mxCell>
                <mxCell id="S_wn4UYpw5f5jdBztWyt-184" value="" style="endArrow=none;html=1;fontColor=#FFFFFF;entryX=0;entryY=0.5;entryDx=0;entryDy=0;exitX=1;exitY=0.3333333333333333;exitDx=0;exitDy=0;exitPerimeter=0;fontSize=15;" parent="1" source="S_wn4UYpw5f5jdBztWyt-149" target="S_wn4UYpw5f5jdBztWyt-143" edge="1">
                    <mxGeometry width="50" height="50" relative="1" as="geometry">
                        <mxPoint x="180" y="267.82608695652175" as="sourcePoint"/>
                        <mxPoint x="280" y="220" as="targetPoint"/>
                    </mxGeometry>
                </mxCell>
                <mxCell id="S_wn4UYpw5f5jdBztWyt-185" value="" style="endArrow=none;html=1;fontColor=#FFFFFF;entryX=0;entryY=0.5;entryDx=0;entryDy=0;exitX=1;exitY=0.3333333333333333;exitDx=0;exitDy=0;exitPerimeter=0;fontSize=15;" parent="1" source="S_wn4UYpw5f5jdBztWyt-150" target="S_wn4UYpw5f5jdBztWyt-141" edge="1">
                    <mxGeometry width="50" height="50" relative="1" as="geometry">
                        <mxPoint x="190" y="277.82608695652175" as="sourcePoint"/>
                        <mxPoint x="290" y="230" as="targetPoint"/>
                    </mxGeometry>
                </mxCell>
                <mxCell id="S_wn4UYpw5f5jdBztWyt-186" value="" style="endArrow=none;html=1;fontColor=#FFFFFF;entryX=0;entryY=0.5;entryDx=0;entryDy=0;exitX=1;exitY=0.3333333333333333;exitDx=0;exitDy=0;exitPerimeter=0;fontSize=15;" parent="1" source="S_wn4UYpw5f5jdBztWyt-149" target="S_wn4UYpw5f5jdBztWyt-141" edge="1">
                    <mxGeometry width="50" height="50" relative="1" as="geometry">
                        <mxPoint x="200" y="287.82608695652175" as="sourcePoint"/>
                        <mxPoint x="300" y="240" as="targetPoint"/>
                    </mxGeometry>
                </mxCell>
                <mxCell id="S_wn4UYpw5f5jdBztWyt-187" value="" style="endArrow=none;html=1;fontColor=#FFFFFF;entryX=0;entryY=0.35;entryDx=0;entryDy=0;entryPerimeter=0;exitX=1;exitY=0.3333333333333333;exitDx=0;exitDy=0;exitPerimeter=0;fontSize=15;" parent="1" source="S_wn4UYpw5f5jdBztWyt-149" target="S_wn4UYpw5f5jdBztWyt-144" edge="1">
                    <mxGeometry width="50" height="50" relative="1" as="geometry">
                        <mxPoint x="210" y="297.82608695652175" as="sourcePoint"/>
                        <mxPoint x="310" y="250" as="targetPoint"/>
                    </mxGeometry>
                </mxCell>
                <mxCell id="S_wn4UYpw5f5jdBztWyt-188" value="" style="endArrow=none;html=1;fontColor=#FFFFFF;entryX=0;entryY=0.3333333333333333;entryDx=0;entryDy=0;entryPerimeter=0;exitX=0.987;exitY=0.658;exitDx=0;exitDy=0;exitPerimeter=0;fontSize=15;" parent="1" source="S_wn4UYpw5f5jdBztWyt-145" target="S_wn4UYpw5f5jdBztWyt-176" edge="1">
                    <mxGeometry width="50" height="50" relative="1" as="geometry">
                        <mxPoint x="220" y="307.82608695652175" as="sourcePoint"/>
                        <mxPoint x="320" y="260" as="targetPoint"/>
                    </mxGeometry>
                </mxCell>
                <mxCell id="S_wn4UYpw5f5jdBztWyt-189" value="" style="endArrow=none;html=1;fontColor=#FFFFFF;entryX=0;entryY=0.3333333333333333;entryDx=0;entryDy=0;entryPerimeter=0;fontSize=15;" parent="1" source="S_wn4UYpw5f5jdBztWyt-173" target="S_wn4UYpw5f5jdBztWyt-176" edge="1">
                    <mxGeometry width="50" height="50" relative="1" as="geometry">
                        <mxPoint x="230" y="317.82608695652175" as="sourcePoint"/>
                        <mxPoint x="330" y="270" as="targetPoint"/>
                    </mxGeometry>
                </mxCell>
                <mxCell id="S_wn4UYpw5f5jdBztWyt-190" value="" style="endArrow=none;html=1;fontColor=#FFFFFF;entryX=0;entryY=0.3333333333333333;entryDx=0;entryDy=0;entryPerimeter=0;exitX=1;exitY=0.368;exitDx=0;exitDy=0;exitPerimeter=0;fontSize=15;" parent="1" source="S_wn4UYpw5f5jdBztWyt-174" target="S_wn4UYpw5f5jdBztWyt-177" edge="1">
                    <mxGeometry width="50" height="50" relative="1" as="geometry">
                        <mxPoint x="240" y="327.82608695652175" as="sourcePoint"/>
                        <mxPoint x="340" y="280" as="targetPoint"/>
                    </mxGeometry>
                </mxCell>
                <mxCell id="S_wn4UYpw5f5jdBztWyt-191" value="" style="endArrow=none;html=1;fontColor=#FFFFFF;entryX=0;entryY=0.3333333333333333;entryDx=0;entryDy=0;entryPerimeter=0;exitX=1;exitY=0.5;exitDx=0;exitDy=0;fontSize=15;" parent="1" source="S_wn4UYpw5f5jdBztWyt-174" target="S_wn4UYpw5f5jdBztWyt-176" edge="1">
                    <mxGeometry width="50" height="50" relative="1" as="geometry">
                        <mxPoint x="250" y="337.82608695652175" as="sourcePoint"/>
                        <mxPoint x="350" y="290" as="targetPoint"/>
                    </mxGeometry>
                </mxCell>
                <mxCell id="S_wn4UYpw5f5jdBztWyt-192" value="" style="endArrow=none;html=1;fontColor=#FFFFFF;entryX=0;entryY=0.3333333333333333;entryDx=0;entryDy=0;entryPerimeter=0;exitX=1;exitY=0.5;exitDx=0;exitDy=0;fontSize=15;" parent="1" source="S_wn4UYpw5f5jdBztWyt-175" target="S_wn4UYpw5f5jdBztWyt-178" edge="1">
                    <mxGeometry width="50" height="50" relative="1" as="geometry">
                        <mxPoint x="260" y="347.82608695652175" as="sourcePoint"/>
                        <mxPoint x="360" y="300" as="targetPoint"/>
                    </mxGeometry>
                </mxCell>
            </root>
        </mxGraphModel>
    </diagram>
    <diagram id="kL8mVKaBXdDqaFJcsqJV" name="第2頁">
        <mxGraphModel dx="1251" dy="770" grid="1" gridSize="10" guides="1" tooltips="1" connect="1" arrows="1" fold="1" page="1" pageScale="1" pageWidth="2339" pageHeight="3300" math="0" shadow="0">
            <root>
                <mxCell id="0"/>
                <mxCell id="1" parent="0"/>
                <mxCell id="uWfRgEMp2DOVYezNsQze-1" value="顧客" style="shape=umlLifeline;participant=umlActor;perimeter=lifelinePerimeter;whiteSpace=wrap;html=1;container=1;collapsible=0;recursiveResize=0;verticalAlign=top;spacingTop=36;outlineConnect=0;" vertex="1" parent="1">
                    <mxGeometry x="65" y="110" width="30" height="930" as="geometry"/>
                </mxCell>
                <mxCell id="uWfRgEMp2DOVYezNsQze-6" value="開始點餐" style="html=1;verticalAlign=bottom;endArrow=block;entryX=0;entryY=0;entryDx=0;entryDy=0;entryPerimeter=0;" edge="1" parent="uWfRgEMp2DOVYezNsQze-1" target="uWfRgEMp2DOVYezNsQze-7">
                    <mxGeometry width="80" relative="1" as="geometry">
                        <mxPoint x="15" y="90" as="sourcePoint"/>
                        <mxPoint x="155" y="90" as="targetPoint"/>
                    </mxGeometry>
                </mxCell>
                <mxCell id="uWfRgEMp2DOVYezNsQze-2" value="點餐機" style="shape=umlLifeline;perimeter=lifelinePerimeter;whiteSpace=wrap;html=1;container=1;collapsible=0;recursiveResize=0;outlineConnect=0;" vertex="1" parent="1">
                    <mxGeometry x="180" y="110" width="100" height="930" as="geometry"/>
                </mxCell>
                <mxCell id="uWfRgEMp2DOVYezNsQze-7" value="" style="html=1;points=[];perimeter=orthogonalPerimeter;fillColor=#1ba1e2;fontColor=#ffffff;strokeColor=#006EAF;" vertex="1" parent="uWfRgEMp2DOVYezNsQze-2">
                    <mxGeometry x="40" y="90" width="20" height="180" as="geometry"/>
                </mxCell>
                <mxCell id="uWfRgEMp2DOVYezNsQze-12" value="選擇商品" style="edgeStyle=orthogonalEdgeStyle;html=1;align=left;spacingLeft=2;endArrow=block;rounded=0;entryX=1.095;entryY=0.188;entryDx=0;entryDy=0;entryPerimeter=0;verticalAlign=bottom;" edge="1" target="uWfRgEMp2DOVYezNsQze-7" parent="uWfRgEMp2DOVYezNsQze-2">
                    <mxGeometry x="-1" relative="1" as="geometry">
                        <mxPoint x="60" y="110" as="sourcePoint"/>
                        <Array as="points">
                            <mxPoint x="110" y="110"/>
                            <mxPoint x="110" y="124"/>
                        </Array>
                        <mxPoint x="69.99999999999994" y="120" as="targetPoint"/>
                        <mxPoint as="offset"/>
                    </mxGeometry>
                </mxCell>
                <mxCell id="uWfRgEMp2DOVYezNsQze-13" value="調整設定(例如去冰、加醬包)" style="edgeStyle=orthogonalEdgeStyle;html=1;align=left;spacingLeft=2;endArrow=block;rounded=0;entryX=1.095;entryY=0.188;entryDx=0;entryDy=0;entryPerimeter=0;verticalAlign=bottom;" edge="1" parent="uWfRgEMp2DOVYezNsQze-2">
                    <mxGeometry x="-1" relative="1" as="geometry">
                        <mxPoint x="60" y="150" as="sourcePoint"/>
                        <Array as="points">
                            <mxPoint x="59.69999999999999" y="150.39999999999998"/>
                            <mxPoint x="109.69999999999999" y="150.39999999999998"/>
                            <mxPoint x="109.69999999999999" y="160.39999999999998"/>
                        </Array>
                        <mxPoint x="61.125" y="160.47999999999996" as="targetPoint"/>
                        <mxPoint as="offset"/>
                    </mxGeometry>
                </mxCell>
                <mxCell id="uWfRgEMp2DOVYezNsQze-14" value="加入購物車" style="edgeStyle=orthogonalEdgeStyle;html=1;align=left;spacingLeft=2;endArrow=block;rounded=0;entryX=1.095;entryY=0.188;entryDx=0;entryDy=0;entryPerimeter=0;verticalAlign=bottom;" edge="1" parent="uWfRgEMp2DOVYezNsQze-2">
                    <mxGeometry x="-1" relative="1" as="geometry">
                        <mxPoint x="60" y="190" as="sourcePoint"/>
                        <Array as="points">
                            <mxPoint x="59.69999999999999" y="190.39999999999998"/>
                            <mxPoint x="109.69999999999999" y="190.39999999999998"/>
                            <mxPoint x="109.69999999999999" y="200.39999999999998"/>
                        </Array>
                        <mxPoint x="61.125" y="200.47999999999996" as="targetPoint"/>
                        <mxPoint as="offset"/>
                    </mxGeometry>
                </mxCell>
                <mxCell id="uWfRgEMp2DOVYezNsQze-15" value="結帳購物車" style="edgeStyle=orthogonalEdgeStyle;html=1;align=left;spacingLeft=2;endArrow=block;rounded=0;entryX=1.095;entryY=0.188;entryDx=0;entryDy=0;entryPerimeter=0;verticalAlign=bottom;" edge="1" parent="uWfRgEMp2DOVYezNsQze-2">
                    <mxGeometry x="-1" relative="1" as="geometry">
                        <mxPoint x="60" y="230" as="sourcePoint"/>
                        <Array as="points">
                            <mxPoint x="59.69999999999999" y="230.39999999999998"/>
                            <mxPoint x="109.69999999999999" y="230.39999999999998"/>
                            <mxPoint x="109.69999999999999" y="240.39999999999998"/>
                        </Array>
                        <mxPoint x="61.125" y="240.48000000000002" as="targetPoint"/>
                        <mxPoint as="offset"/>
                    </mxGeometry>
                </mxCell>
                <mxCell id="uWfRgEMp2DOVYezNsQze-3" value="餐廳系統" style="shape=umlLifeline;perimeter=lifelinePerimeter;whiteSpace=wrap;html=1;container=1;collapsible=0;recursiveResize=0;outlineConnect=0;" vertex="1" parent="1">
                    <mxGeometry x="360" y="110" width="100" height="930" as="geometry"/>
                </mxCell>
                <mxCell id="uWfRgEMp2DOVYezNsQze-18" value="記錄訂單" style="edgeStyle=orthogonalEdgeStyle;html=1;align=left;spacingLeft=2;endArrow=block;rounded=0;entryX=1.095;entryY=0.188;entryDx=0;entryDy=0;entryPerimeter=0;verticalAlign=bottom;" edge="1" parent="uWfRgEMp2DOVYezNsQze-3">
                    <mxGeometry x="-1" relative="1" as="geometry">
                        <mxPoint x="50" y="280" as="sourcePoint"/>
                        <Array as="points">
                            <mxPoint x="50" y="280.4"/>
                            <mxPoint x="100" y="280.4"/>
                            <mxPoint x="100" y="290.4"/>
                        </Array>
                        <mxPoint x="51.42500000000001" y="290.48" as="targetPoint"/>
                        <mxPoint as="offset"/>
                    </mxGeometry>
                </mxCell>
                <mxCell id="uWfRgEMp2DOVYezNsQze-19" value="" style="html=1;points=[];perimeter=orthogonalPerimeter;fillColor=#1ba1e2;fontColor=#ffffff;strokeColor=#006EAF;" vertex="1" parent="uWfRgEMp2DOVYezNsQze-3">
                    <mxGeometry x="40" y="310" width="20" height="600" as="geometry"/>
                </mxCell>
                <mxCell id="uWfRgEMp2DOVYezNsQze-20" value="查詢庫存狀況" style="html=1;verticalAlign=bottom;endArrow=block;align=right;labelPosition=left;verticalLabelPosition=top;textDirection=rtl;labelBackgroundColor=none;" edge="1" parent="uWfRgEMp2DOVYezNsQze-3">
                    <mxGeometry x="-0.9473" width="80" relative="1" as="geometry">
                        <mxPoint x="60" y="310" as="sourcePoint"/>
                        <mxPoint x="430" y="310" as="targetPoint"/>
                        <mxPoint x="1" as="offset"/>
                    </mxGeometry>
                </mxCell>
                <mxCell id="uWfRgEMp2DOVYezNsQze-24" value="更新庫存數量" style="edgeStyle=orthogonalEdgeStyle;html=1;align=left;spacingLeft=2;endArrow=block;rounded=0;entryX=1.095;entryY=0.188;entryDx=0;entryDy=0;entryPerimeter=0;verticalAlign=bottom;" edge="1" parent="uWfRgEMp2DOVYezNsQze-3">
                    <mxGeometry x="-1" relative="1" as="geometry">
                        <mxPoint x="60" y="370" as="sourcePoint"/>
                        <Array as="points">
                            <mxPoint x="59.69999999999999" y="370.4"/>
                            <mxPoint x="109.69999999999999" y="370.4"/>
                            <mxPoint x="109.69999999999999" y="380.4"/>
                        </Array>
                        <mxPoint x="61.125" y="380.48" as="targetPoint"/>
                        <mxPoint as="offset"/>
                    </mxGeometry>
                </mxCell>
                <mxCell id="uWfRgEMp2DOVYezNsQze-30" value="獲取新訂單" style="edgeStyle=orthogonalEdgeStyle;html=1;align=left;spacingLeft=2;endArrow=block;rounded=0;entryX=1.095;entryY=0.188;entryDx=0;entryDy=0;entryPerimeter=0;verticalAlign=bottom;" edge="1" parent="uWfRgEMp2DOVYezNsQze-3">
                    <mxGeometry x="-1" relative="1" as="geometry">
                        <mxPoint x="60" y="454" as="sourcePoint"/>
                        <Array as="points">
                            <mxPoint x="59.69999999999999" y="454.4"/>
                            <mxPoint x="109.69999999999999" y="454.4"/>
                            <mxPoint x="109.69999999999999" y="464.4"/>
                        </Array>
                        <mxPoint x="61.125" y="464.48" as="targetPoint"/>
                        <mxPoint as="offset"/>
                    </mxGeometry>
                </mxCell>
                <mxCell id="uWfRgEMp2DOVYezNsQze-50" value="移除已完成餐點" style="edgeStyle=orthogonalEdgeStyle;html=1;align=left;spacingLeft=2;endArrow=block;rounded=0;entryX=1.095;entryY=0.188;entryDx=0;entryDy=0;entryPerimeter=0;verticalAlign=bottom;" edge="1" parent="uWfRgEMp2DOVYezNsQze-3">
                    <mxGeometry x="-1" relative="1" as="geometry">
                        <mxPoint x="60" y="630" as="sourcePoint"/>
                        <Array as="points">
                            <mxPoint x="59.69999999999999" y="630.4"/>
                            <mxPoint x="109.69999999999999" y="630.4"/>
                            <mxPoint x="109.69999999999999" y="640.4"/>
                        </Array>
                        <mxPoint x="61.125" y="640.48" as="targetPoint"/>
                        <mxPoint as="offset"/>
                    </mxGeometry>
                </mxCell>
                <mxCell id="uWfRgEMp2DOVYezNsQze-4" value="員工" style="shape=umlLifeline;perimeter=lifelinePerimeter;whiteSpace=wrap;html=1;container=1;collapsible=0;recursiveResize=0;outlineConnect=0;" vertex="1" parent="1">
                    <mxGeometry x="560" y="110" width="100" height="930" as="geometry"/>
                </mxCell>
                <mxCell id="uWfRgEMp2DOVYezNsQze-25" value="" style="html=1;points=[];perimeter=orthogonalPerimeter;fillColor=#1ba1e2;fontColor=#ffffff;strokeColor=#006EAF;" vertex="1" parent="uWfRgEMp2DOVYezNsQze-4">
                    <mxGeometry x="40" y="400" width="20" height="30" as="geometry"/>
                </mxCell>
                <mxCell id="uWfRgEMp2DOVYezNsQze-29" value="確認訂單狀態" style="edgeStyle=orthogonalEdgeStyle;html=1;align=left;spacingLeft=2;endArrow=block;rounded=0;entryX=1.095;entryY=0.188;entryDx=0;entryDy=0;entryPerimeter=0;verticalAlign=bottom;" edge="1" parent="uWfRgEMp2DOVYezNsQze-4">
                    <mxGeometry x="-1" relative="1" as="geometry">
                        <mxPoint x="60" y="410" as="sourcePoint"/>
                        <Array as="points">
                            <mxPoint x="59.700000000000045" y="410.4"/>
                            <mxPoint x="109.70000000000005" y="410.4"/>
                            <mxPoint x="109.70000000000005" y="420.4"/>
                        </Array>
                        <mxPoint x="61.125" y="420.48" as="targetPoint"/>
                        <mxPoint as="offset"/>
                    </mxGeometry>
                </mxCell>
                <mxCell id="uWfRgEMp2DOVYezNsQze-37" value="" style="html=1;points=[];perimeter=orthogonalPerimeter;fillColor=#1ba1e2;fontColor=#ffffff;strokeColor=#006EAF;" vertex="1" parent="uWfRgEMp2DOVYezNsQze-4">
                    <mxGeometry x="40" y="489" width="20" height="30" as="geometry"/>
                </mxCell>
                <mxCell id="uWfRgEMp2DOVYezNsQze-49" value="" style="html=1;points=[];perimeter=orthogonalPerimeter;fillColor=#1ba1e2;fontColor=#ffffff;strokeColor=#006EAF;" vertex="1" parent="uWfRgEMp2DOVYezNsQze-4">
                    <mxGeometry x="40" y="578" width="20" height="29" as="geometry"/>
                </mxCell>
                <mxCell id="uWfRgEMp2DOVYezNsQze-5" value="倉庫管理員" style="shape=umlLifeline;perimeter=lifelinePerimeter;whiteSpace=wrap;html=1;container=1;collapsible=0;recursiveResize=0;outlineConnect=0;" vertex="1" parent="1">
                    <mxGeometry x="750" y="110" width="100" height="930" as="geometry"/>
                </mxCell>
                <mxCell id="uWfRgEMp2DOVYezNsQze-21" value="" style="html=1;points=[];perimeter=orthogonalPerimeter;fillColor=#1ba1e2;fontColor=#ffffff;strokeColor=#006EAF;" vertex="1" parent="uWfRgEMp2DOVYezNsQze-5">
                    <mxGeometry x="40" y="310" width="20" height="30" as="geometry"/>
                </mxCell>
                <mxCell id="uWfRgEMp2DOVYezNsQze-51" value="" style="html=1;points=[];perimeter=orthogonalPerimeter;fillColor=#1ba1e2;fontColor=#ffffff;strokeColor=#006EAF;" vertex="1" parent="uWfRgEMp2DOVYezNsQze-5">
                    <mxGeometry x="40" y="670" width="20" height="40" as="geometry"/>
                </mxCell>
                <mxCell id="uWfRgEMp2DOVYezNsQze-54" value="盤點原物料" style="edgeStyle=orthogonalEdgeStyle;html=1;align=left;spacingLeft=2;endArrow=block;rounded=0;entryX=1.095;entryY=0.188;entryDx=0;entryDy=0;entryPerimeter=0;verticalAlign=bottom;" edge="1" parent="uWfRgEMp2DOVYezNsQze-5">
                    <mxGeometry x="-1" relative="1" as="geometry">
                        <mxPoint x="60" y="680" as="sourcePoint"/>
                        <Array as="points">
                            <mxPoint x="59.700000000000045" y="680.4"/>
                            <mxPoint x="109.70000000000005" y="680.4"/>
                            <mxPoint x="109.70000000000005" y="690.4"/>
                        </Array>
                        <mxPoint x="61.125" y="690.48" as="targetPoint"/>
                        <mxPoint as="offset"/>
                    </mxGeometry>
                </mxCell>
                <mxCell id="uWfRgEMp2DOVYezNsQze-64" value="" style="html=1;points=[];perimeter=orthogonalPerimeter;fillColor=#1ba1e2;fontColor=#ffffff;strokeColor=#006EAF;" vertex="1" parent="uWfRgEMp2DOVYezNsQze-5">
                    <mxGeometry x="40" y="740" width="20" height="40" as="geometry"/>
                </mxCell>
                <mxCell id="uWfRgEMp2DOVYezNsQze-65" value="確認進貨需求" style="edgeStyle=orthogonalEdgeStyle;html=1;align=left;spacingLeft=2;endArrow=block;rounded=0;entryX=1.095;entryY=0.188;entryDx=0;entryDy=0;entryPerimeter=0;verticalAlign=bottom;" edge="1" parent="uWfRgEMp2DOVYezNsQze-5">
                    <mxGeometry x="-1" relative="1" as="geometry">
                        <mxPoint x="60" y="750" as="sourcePoint"/>
                        <Array as="points">
                            <mxPoint x="59.700000000000045" y="750.4"/>
                            <mxPoint x="109.70000000000005" y="750.4"/>
                            <mxPoint x="109.70000000000005" y="760.4"/>
                        </Array>
                        <mxPoint x="61.125" y="760.48" as="targetPoint"/>
                        <mxPoint as="offset"/>
                    </mxGeometry>
                </mxCell>
                <mxCell id="uWfRgEMp2DOVYezNsQze-66" value="確認是否進貨" style="html=1;verticalAlign=bottom;endArrow=block;entryX=0;entryY=0;labelBackgroundColor=none;labelPosition=right;verticalLabelPosition=top;align=left;" edge="1" parent="uWfRgEMp2DOVYezNsQze-5" target="uWfRgEMp2DOVYezNsQze-64">
                    <mxGeometry x="-0.9459" relative="1" as="geometry">
                        <mxPoint x="-330" y="740" as="sourcePoint"/>
                        <mxPoint as="offset"/>
                    </mxGeometry>
                </mxCell>
                <mxCell id="uWfRgEMp2DOVYezNsQze-67" value="回傳進貨需求" style="html=1;verticalAlign=bottom;endArrow=open;dashed=1;endSize=8;exitX=0;exitY=0.95;labelBackgroundColor=none;labelPosition=right;verticalLabelPosition=top;align=left;" edge="1" parent="uWfRgEMp2DOVYezNsQze-5" source="uWfRgEMp2DOVYezNsQze-64">
                    <mxGeometry x="0.9459" relative="1" as="geometry">
                        <mxPoint x="-330" y="778" as="targetPoint"/>
                        <mxPoint as="offset"/>
                    </mxGeometry>
                </mxCell>
                <mxCell id="uWfRgEMp2DOVYezNsQze-68" value="" style="html=1;points=[];perimeter=orthogonalPerimeter;fillColor=#1ba1e2;fontColor=#ffffff;strokeColor=#006EAF;" vertex="1" parent="uWfRgEMp2DOVYezNsQze-5">
                    <mxGeometry x="40" y="850" width="20" height="40" as="geometry"/>
                </mxCell>
                <mxCell id="uWfRgEMp2DOVYezNsQze-69" value="補充原物料" style="edgeStyle=orthogonalEdgeStyle;html=1;align=left;spacingLeft=2;endArrow=block;rounded=0;entryX=1.095;entryY=0.188;entryDx=0;entryDy=0;entryPerimeter=0;verticalAlign=bottom;" edge="1" parent="uWfRgEMp2DOVYezNsQze-5">
                    <mxGeometry x="-1" relative="1" as="geometry">
                        <mxPoint x="60" y="860" as="sourcePoint"/>
                        <Array as="points">
                            <mxPoint x="59.700000000000045" y="860.4"/>
                            <mxPoint x="109.70000000000005" y="860.4"/>
                            <mxPoint x="109.70000000000005" y="870.4"/>
                        </Array>
                        <mxPoint x="61.125" y="870.48" as="targetPoint"/>
                        <mxPoint as="offset"/>
                    </mxGeometry>
                </mxCell>
                <mxCell id="uWfRgEMp2DOVYezNsQze-70" value="進貨申請" style="html=1;verticalAlign=bottom;endArrow=block;entryX=0;entryY=0;labelBackgroundColor=none;labelPosition=right;verticalLabelPosition=top;align=left;" edge="1" parent="uWfRgEMp2DOVYezNsQze-5" target="uWfRgEMp2DOVYezNsQze-68">
                    <mxGeometry x="-0.9459" relative="1" as="geometry">
                        <mxPoint x="-330" y="850" as="sourcePoint"/>
                        <mxPoint as="offset"/>
                    </mxGeometry>
                </mxCell>
                <mxCell id="uWfRgEMp2DOVYezNsQze-71" value="回傳補充結果" style="html=1;verticalAlign=bottom;endArrow=classic;endSize=8;exitX=0;exitY=0.95;labelBackgroundColor=none;labelPosition=right;verticalLabelPosition=top;align=left;endFill=1;" edge="1" parent="uWfRgEMp2DOVYezNsQze-5" source="uWfRgEMp2DOVYezNsQze-68">
                    <mxGeometry x="0.9459" relative="1" as="geometry">
                        <mxPoint x="-330" y="888" as="targetPoint"/>
                        <mxPoint as="offset"/>
                    </mxGeometry>
                </mxCell>
                <mxCell id="uWfRgEMp2DOVYezNsQze-17" value="提交訂單" style="html=1;verticalAlign=bottom;endArrow=block;" edge="1" parent="1" target="uWfRgEMp2DOVYezNsQze-3">
                    <mxGeometry x="-0.646" width="80" relative="1" as="geometry">
                        <mxPoint x="240" y="380" as="sourcePoint"/>
                        <mxPoint x="320" y="380" as="targetPoint"/>
                        <mxPoint as="offset"/>
                    </mxGeometry>
                </mxCell>
                <mxCell id="uWfRgEMp2DOVYezNsQze-22" value="回傳庫存狀況" style="html=1;verticalAlign=bottom;endArrow=open;dashed=1;endSize=8;labelBackgroundColor=none;align=left;" edge="1" parent="1" target="uWfRgEMp2DOVYezNsQze-19">
                    <mxGeometry x="0.9459" relative="1" as="geometry">
                        <mxPoint x="790" y="450" as="sourcePoint"/>
                        <mxPoint x="710" y="450" as="targetPoint"/>
                        <mxPoint as="offset"/>
                    </mxGeometry>
                </mxCell>
                <mxCell id="uWfRgEMp2DOVYezNsQze-26" value="顯示新訂單" style="html=1;verticalAlign=bottom;endArrow=block;entryX=0;entryY=0;labelBackgroundColor=none;align=left;" edge="1" target="uWfRgEMp2DOVYezNsQze-25" parent="1">
                    <mxGeometry x="-1" relative="1" as="geometry">
                        <mxPoint x="420" y="510" as="sourcePoint"/>
                        <mxPoint as="offset"/>
                    </mxGeometry>
                </mxCell>
                <mxCell id="uWfRgEMp2DOVYezNsQze-27" value="確認訂單狀態" style="html=1;verticalAlign=bottom;endArrow=classic;endSize=8;exitX=0;exitY=0.95;labelBackgroundColor=none;endFill=1;align=left;" edge="1" parent="1">
                    <mxGeometry x="0.7889" relative="1" as="geometry">
                        <mxPoint x="421" y="538.5" as="targetPoint"/>
                        <mxPoint x="601" y="538.5" as="sourcePoint"/>
                        <mxPoint as="offset"/>
                    </mxGeometry>
                </mxCell>
                <mxCell id="uWfRgEMp2DOVYezNsQze-34" value="處裡訂單" style="edgeStyle=orthogonalEdgeStyle;html=1;align=left;spacingLeft=2;endArrow=block;rounded=0;entryX=1.095;entryY=0.188;entryDx=0;entryDy=0;entryPerimeter=0;verticalAlign=bottom;" edge="1" parent="1">
                    <mxGeometry x="-1" relative="1" as="geometry">
                        <mxPoint x="620" y="610" as="sourcePoint"/>
                        <Array as="points">
                            <mxPoint x="619.7" y="610.4"/>
                            <mxPoint x="669.7" y="610.4"/>
                            <mxPoint x="669.7" y="620.4"/>
                        </Array>
                        <mxPoint x="621.125" y="620.48" as="targetPoint"/>
                        <mxPoint as="offset"/>
                    </mxGeometry>
                </mxCell>
                <mxCell id="uWfRgEMp2DOVYezNsQze-35" value="顯示新訂單" style="html=1;verticalAlign=bottom;endArrow=block;entryX=0;entryY=0;labelBackgroundColor=none;align=left;labelPosition=right;verticalLabelPosition=top;" edge="1" parent="1">
                    <mxGeometry x="-1" relative="1" as="geometry">
                        <mxPoint x="420" y="600" as="sourcePoint"/>
                        <mxPoint x="600" y="600" as="targetPoint"/>
                        <mxPoint as="offset"/>
                    </mxGeometry>
                </mxCell>
                <mxCell id="uWfRgEMp2DOVYezNsQze-36" value="完成訂單" style="html=1;verticalAlign=bottom;endArrow=classic;endSize=8;exitX=0;exitY=0.95;labelBackgroundColor=none;endFill=1;align=left;labelPosition=right;verticalLabelPosition=top;" edge="1" parent="1">
                    <mxGeometry x="0.7778" y="1" relative="1" as="geometry">
                        <mxPoint x="420" y="628.5000000000001" as="targetPoint"/>
                        <mxPoint x="600" y="628.5000000000001" as="sourcePoint"/>
                        <mxPoint as="offset"/>
                    </mxGeometry>
                </mxCell>
                <mxCell id="uWfRgEMp2DOVYezNsQze-38" value="更新訂單狀態" style="edgeStyle=orthogonalEdgeStyle;html=1;align=left;spacingLeft=2;endArrow=block;rounded=0;entryX=1.095;entryY=0.188;entryDx=0;entryDy=0;entryPerimeter=0;verticalAlign=bottom;" edge="1" parent="1">
                    <mxGeometry x="-1" relative="1" as="geometry">
                        <mxPoint x="420" y="654" as="sourcePoint"/>
                        <Array as="points">
                            <mxPoint x="419.7" y="654.4"/>
                            <mxPoint x="469.7" y="654.4"/>
                            <mxPoint x="469.7" y="664.4"/>
                        </Array>
                        <mxPoint x="421.125" y="664.4800000000001" as="targetPoint"/>
                        <mxPoint as="offset"/>
                    </mxGeometry>
                </mxCell>
                <mxCell id="uWfRgEMp2DOVYezNsQze-46" value="領取餐點" style="edgeStyle=orthogonalEdgeStyle;html=1;align=left;spacingLeft=2;endArrow=block;rounded=0;entryX=1.095;entryY=0.188;entryDx=0;entryDy=0;entryPerimeter=0;verticalAlign=bottom;" edge="1" parent="1">
                    <mxGeometry x="-1" relative="1" as="geometry">
                        <mxPoint x="620" y="697" as="sourcePoint"/>
                        <Array as="points">
                            <mxPoint x="619.7" y="697.4"/>
                            <mxPoint x="669.7" y="697.4"/>
                            <mxPoint x="669.7" y="707.4"/>
                        </Array>
                        <mxPoint x="621.125" y="707.48" as="targetPoint"/>
                        <mxPoint as="offset"/>
                    </mxGeometry>
                </mxCell>
                <mxCell id="uWfRgEMp2DOVYezNsQze-47" value="顯示已完成的訂單" style="html=1;verticalAlign=bottom;endArrow=block;entryX=0;entryY=0;labelBackgroundColor=none;align=left;labelPosition=right;verticalLabelPosition=top;" edge="1" parent="1">
                    <mxGeometry x="-1" relative="1" as="geometry">
                        <mxPoint x="420" y="688" as="sourcePoint"/>
                        <mxPoint x="600" y="688" as="targetPoint"/>
                        <mxPoint as="offset"/>
                    </mxGeometry>
                </mxCell>
                <mxCell id="uWfRgEMp2DOVYezNsQze-48" value="領取餐點" style="html=1;verticalAlign=bottom;endArrow=classic;endSize=8;exitX=0;exitY=0.95;labelBackgroundColor=none;endFill=1;labelPosition=right;verticalLabelPosition=top;align=left;" edge="1" parent="1">
                    <mxGeometry x="0.7778" relative="1" as="geometry">
                        <mxPoint x="420" y="716.5" as="targetPoint"/>
                        <mxPoint x="600" y="716.5" as="sourcePoint"/>
                        <mxPoint as="offset"/>
                    </mxGeometry>
                </mxCell>
                <mxCell id="uWfRgEMp2DOVYezNsQze-52" value="盤點原物料數量" style="html=1;verticalAlign=bottom;endArrow=block;entryX=0;entryY=0;labelBackgroundColor=none;labelPosition=right;verticalLabelPosition=top;align=left;" edge="1" target="uWfRgEMp2DOVYezNsQze-51" parent="1">
                    <mxGeometry x="-0.9459" relative="1" as="geometry">
                        <mxPoint x="420" y="780" as="sourcePoint"/>
                        <mxPoint as="offset"/>
                    </mxGeometry>
                </mxCell>
                <mxCell id="uWfRgEMp2DOVYezNsQze-53" value="提供庫存狀況" style="html=1;verticalAlign=bottom;endArrow=classic;endSize=8;exitX=0;exitY=0.95;labelBackgroundColor=none;labelPosition=right;verticalLabelPosition=top;align=left;endFill=1;" edge="1" source="uWfRgEMp2DOVYezNsQze-51" parent="1" target="uWfRgEMp2DOVYezNsQze-19">
                    <mxGeometry x="0.9459" relative="1" as="geometry">
                        <mxPoint x="420" y="856" as="targetPoint"/>
                        <mxPoint as="offset"/>
                    </mxGeometry>
                </mxCell>
                <mxCell id="uWfRgEMp2DOVYezNsQze-72" value="監控原物料數量" style="edgeStyle=orthogonalEdgeStyle;html=1;align=left;spacingLeft=2;endArrow=block;rounded=0;entryX=1.095;entryY=0.188;entryDx=0;entryDy=0;entryPerimeter=0;verticalAlign=bottom;" edge="1" parent="1">
                    <mxGeometry x="-1" relative="1" as="geometry">
                        <mxPoint x="420" y="920" as="sourcePoint"/>
                        <Array as="points">
                            <mxPoint x="419.7" y="920.4"/>
                            <mxPoint x="469.7" y="920.4"/>
                            <mxPoint x="469.7" y="930.4"/>
                        </Array>
                        <mxPoint x="421.125" y="930.48" as="targetPoint"/>
                        <mxPoint as="offset"/>
                    </mxGeometry>
                </mxCell>
                <mxCell id="uWfRgEMp2DOVYezNsQze-85" value="顧客" style="shape=umlActor;verticalLabelPosition=bottom;verticalAlign=top;html=1;" vertex="1" parent="1">
                    <mxGeometry x="65" y="1040" width="30" height="40" as="geometry"/>
                </mxCell>
                <mxCell id="uWfRgEMp2DOVYezNsQze-86" value="點餐機" style="html=1;" vertex="1" parent="1">
                    <mxGeometry x="180" y="1040" width="100" height="50" as="geometry"/>
                </mxCell>
                <mxCell id="uWfRgEMp2DOVYezNsQze-87" value="餐廳系統" style="html=1;" vertex="1" parent="1">
                    <mxGeometry x="360" y="1040" width="100" height="50" as="geometry"/>
                </mxCell>
                <mxCell id="uWfRgEMp2DOVYezNsQze-89" value="員工&lt;span style=&quot;color: rgba(0, 0, 0, 0); font-family: monospace; font-size: 0px; text-align: start;&quot;&gt;%3CmxGraphModel%3E%3Croot%3E%3CmxCell%20id%3D%220%22%2F%3E%3CmxCell%20id%3D%221%22%20parent%3D%220%22%2F%3E%3CmxCell%20id%3D%222%22%20value%3D%22%E9%BB%9E%E9%A4%90%E6%A9%9F%22%20style%3D%22html%3D1%3B%22%20vertex%3D%221%22%20parent%3D%221%22%3E%3CmxGeometry%20x%3D%22180%22%20y%3D%221040%22%20width%3D%22100%22%20height%3D%2250%22%20as%3D%22geometry%22%2F%3E%3C%2FmxCell%3E%3C%2Froot%3E%3C%2FmxGraphModel%3E&lt;/span&gt;&lt;span style=&quot;color: rgba(0, 0, 0, 0); font-family: monospace; font-size: 0px; text-align: start;&quot;&gt;%3CmxGraphModel%3E%3Croot%3E%3CmxCell%20id%3D%220%22%2F%3E%3CmxCell%20id%3D%221%22%20parent%3D%220%22%2F%3E%3CmxCell%20id%3D%222%22%20value%3D%22%E9%BB%9E%E9%A4%90%E6%A9%9F%22%20style%3D%22html%3D1%3B%22%20vertex%3D%221%22%20parent%3D%221%22%3E%3CmxGeometry%20x%3D%22180%22%20y%3D%221040%22%20width%3D%22100%22%20height%3D%2250%22%20as%3D%22geometry%22%2F%3E%3C%2FmxCell%3E%3C%2Froot%3E%3C%2FmxGraphModel%3E&lt;/span&gt;" style="html=1;" vertex="1" parent="1">
                    <mxGeometry x="560" y="1040" width="100" height="50" as="geometry"/>
                </mxCell>
                <mxCell id="uWfRgEMp2DOVYezNsQze-90" value="倉庫管理人員" style="html=1;" vertex="1" parent="1">
                    <mxGeometry x="750" y="1040" width="100" height="50" as="geometry"/>
                </mxCell>
            </root>
        </mxGraphModel>
    </diagram>
</mxfile>